<?xml version="1.0" encoding="UTF-8"?> <svg xmlns="http://www.w3.org/2000/svg" width="163" height="56" viewBox="0 0 163 56" fill="none"> <path d="M40.899 10.9834C40.899 10.9834 27.9113 16 17.5211 24.9045C8.36783 32.6803 1.93575 46.0997 7.25453 51.9942C11.4601 56.6346 21.974 55.3804 31.4983 49.2351C41.5175 42.8389 48.4442 32.8057 56.3605 35.8156C70.4615 41.0831 72.9354 29.294 82.336 30.0465" stroke="#CCCCCC" stroke-width="1.5" stroke-miterlimit="10" stroke-linecap="round" stroke-linejoin="round"></path> <path d="M70.3867 8.3278C70.3867 8.3278 88.3854 8.20443 99.9293 14.7432C111.473 21.2819 111.722 25.2298 109.239 28.6843C106.756 32.1387 94.4677 36.21 94.3436 30.905C94.2194 25.5999 120.535 20.7884 144.74 36.21" stroke="#CCCCCC" stroke-width="1.5" stroke-miterlimit="10" stroke-linecap="round" stroke-linejoin="round"></path> <path d="M135.445 24.2607C135.445 24.2607 150.24 27.6127 162 38.8658" stroke="#CCCCCC" stroke-width="1.5" stroke-miterlimit="10" stroke-linecap="round" stroke-linejoin="round"></path> <path d="M20.0665 41.5805C19.8354 42.6262 18.3446 42.6262 18.1136 41.5805L14.8962 27.0184C14.817 26.66 14.5479 26.3738 14.1951 26.2728L3.35631 23.1682C2.39012 22.8915 2.39012 21.5223 3.35631 21.2456L14.2071 18.1376C14.5535 18.0384 14.8198 17.7604 14.904 17.41L18.1177 4.04387C18.3634 3.02223 19.8167 3.02223 20.0623 4.04386L23.2765 17.4121C23.3605 17.7614 23.6253 18.0388 23.9703 18.1388L34.6877 21.2465C35.6497 21.5254 35.6497 22.8884 34.6877 23.1673L23.9823 26.2715C23.6309 26.3734 23.3633 26.659 23.2843 27.0162L20.0665 41.5805Z" fill="#042DB7"></path> <path d="M52.5228 5.50004C52.7509 4.44966 54.2491 4.44965 54.4772 5.50004L56.232 13.5802C56.3092 13.936 56.5738 14.2218 56.9227 14.3261L62.7963 16.0826C63.7476 16.3671 63.7476 17.7143 62.7963 17.9988L56.9108 19.7589C56.5683 19.8613 56.3065 20.1388 56.2242 20.4867L54.4731 27.8871C54.2303 28.9135 52.7697 28.9135 52.5269 27.8871L50.7759 20.4867C50.6936 20.1388 50.4318 19.8613 50.0893 19.7589L44.2037 17.9988C43.2524 17.7143 43.2524 16.3671 44.2037 16.0826L50.0774 14.3261C50.4263 14.2218 50.6909 13.936 50.7681 13.5802L52.5228 5.50004Z" fill="#8D269D"></path> </svg> 