<?xml version="1.0" encoding="UTF-8"?> <svg xmlns="http://www.w3.org/2000/svg" width="21" height="22" viewBox="0 0 21 22" fill="none"> <path fill-rule="evenodd" clip-rule="evenodd" d="M9.10668 11.0001L4.83991 13.4635L0.258819 12.236L0 13.2019L3.61516 14.1706L0.330358 16.0671L0.830358 16.9331L4.1151 15.0367L3.14645 18.6517L4.11237 18.9105L5.33984 14.3296L9.60684 11.866V16.9393L6.25325 20.2929L6.96035 21L9.60684 18.3535V22H10.6068V18.3536L13.2532 21L13.9604 20.2929L10.6068 16.9394V11.8662L15.0003 14.4028L16.2278 18.9838L17.1937 18.725L16.225 15.1099L19.383 16.9331L19.883 16.0671L16.7251 14.2439L20.3402 13.2752L20.0814 12.3093L15.5004 13.5368L11.1067 11.0001L15.5002 8.46346L20.0813 9.69096L20.3401 8.72503L16.725 7.75635L19.8829 5.93311L19.3829 5.06708L16.225 6.89029L17.1937 3.27522L16.2278 3.0164L15.0003 7.59739L10.6068 10.134V5.20718L13.9604 1.85359L13.2533 1.14648L10.6068 3.79297V0H9.60684V3.79289L6.96043 1.14648L6.25332 1.85359L9.60684 5.20711V10.1341L5.33998 7.67067L4.11249 3.08958L3.14656 3.3484L4.11524 6.96357L0.830433 5.06708L0.330433 5.93311L3.61518 7.82955L0.000113564 8.79821L0.258933 9.76413L4.83992 8.53666L9.10668 11.0001Z" fill="#D1D1D1"></path> </svg> 